<svg width="96" height="96" viewBox="0 0 96 96" fill="none" xmlns="http://www.w3.org/2000/svg">
<path d="M95.3867 21.7599C95.1824 20.4621 94.5884 19.257 93.6835 18.3045C92.7786 17.352 91.6056 16.6971 90.32 16.4265L74.6667 12.9865C72.988 12.6204 71.2504 12.6191 69.5712 12.9825C67.8919 13.346 66.3104 14.0657 64.9333 15.0932L18.6667 48.7999L5.70668 48.2665C4.66485 48.2292 3.63776 48.5212 2.77128 49.1008C1.90481 49.6805 1.24301 50.5184 0.879878 51.4957C0.516747 52.4729 0.470751 53.5396 0.748422 54.5445C1.02609 55.5493 1.61331 56.4411 2.42668 57.0932L15.76 67.5732C17.36 69.5199 18.4267 69.1465 44.9067 54.7199L47.3867 79.8399C47.4279 80.5251 47.6629 81.1846 48.0641 81.7416C48.4653 82.2986 49.0164 82.7303 49.6533 82.9865C50.1116 83.1676 50.6006 83.2582 51.0933 83.2532C52.0851 83.2229 53.0324 82.8345 53.76 82.1599L60.1333 76.3465C60.768 75.7586 61.1978 74.983 61.36 74.1332L67.2 42.3999C76.72 37.0665 85.7334 32.0532 92.16 28.3999C93.3098 27.7531 94.2348 26.7708 94.8114 25.5843C95.388 24.3978 95.5887 23.0635 95.3867 21.7599ZM89.52 23.7599C82.8533 27.5465 73.52 32.8532 63.4933 38.3465L62.4 38.9599L56.1867 72.7465L52.2667 76.3199L49.3333 46.1865L45.7867 47.9999C26.6667 58.6665 20.2933 61.7599 18.1067 62.7199L6.64001 53.6265L20.1867 54.2132L68.1867 19.3865C68.9412 18.8225 69.8062 18.424 70.7253 18.2172C71.6443 18.0104 72.5966 18 73.52 18.1865L89.12 21.5465C89.3604 21.5901 89.5806 21.7093 89.7485 21.8868C89.9164 22.0643 90.0232 22.2908 90.0533 22.5332C90.1082 22.7678 90.086 23.0139 89.9899 23.2349C89.8938 23.4559 89.729 23.64 89.52 23.7599Z" fill="#26081C"/>
<path d="M18.6667 33.4401L28.16 36.1067L32.5333 32.9334L21.8667 29.8401L26.6667 26.9067L41.2533 26.4801L47.3867 22.0267L26.6667 22.6667C26.0134 22.6314 25.3643 22.7891 24.8 23.1201L17.7867 27.2001C17.2068 27.5436 16.7417 28.051 16.4498 28.6584C16.1579 29.2659 16.0524 29.9461 16.1465 30.6134C16.2406 31.2807 16.5301 31.9053 16.9786 32.4083C17.4271 32.9113 18.0145 33.2703 18.6667 33.4401Z" fill="#26081C"/>
</svg>
