<svg width="96" height="96" viewBox="0 0 96 96" fill="none" xmlns="http://www.w3.org/2000/svg">
<path d="M86 16H77.3334V21.3333H85.3334V80H10.6667V21.3333H18.6667V16H10C9.37665 16.0104 8.76144 16.1435 8.18953 16.3918C7.61762 16.64 7.10021 16.9984 6.66685 17.4466C6.23349 17.8949 5.89268 18.4241 5.66388 19.004C5.43507 19.584 5.32276 20.2033 5.33335 20.8267V80.5067C5.32276 81.13 5.43507 81.7494 5.66388 82.3293C5.89268 82.9093 6.23349 83.4385 6.66685 83.8867C7.10021 84.3349 7.61762 84.6934 8.18953 84.9416C8.76144 85.1898 9.37665 85.3229 10 85.3333H86C86.6234 85.3229 87.2386 85.1898 87.8105 84.9416C88.3824 84.6934 88.8998 84.3349 89.3332 83.8867C89.7666 83.4385 90.1074 82.9093 90.3362 82.3293C90.565 81.7494 90.6773 81.13 90.6667 80.5067V20.8267C90.6773 20.2033 90.565 19.584 90.3362 19.004C90.1074 18.4241 89.7666 17.8949 89.3332 17.4466C88.8998 16.9984 88.3824 16.64 87.8105 16.3918C87.2386 16.1435 86.6234 16.0104 86 16Z" fill="#26081C"/>
<path d="M21.3333 37.3334H26.6667V42.6667H21.3333V37.3334Z" fill="#26081C"/>
<path d="M37.3333 37.3334H42.6667V42.6667H37.3333V37.3334Z" fill="#26081C"/>
<path d="M53.3333 37.3334H58.6667V42.6667H53.3333V37.3334Z" fill="#26081C"/>
<path d="M69.3333 37.3334H74.6667V42.6667H69.3333V37.3334Z" fill="#26081C"/>
<path d="M21.3333 50.6666H26.6667V56H21.3333V50.6666Z" fill="#26081C"/>
<path d="M37.3333 50.6666H42.6667V56H37.3333V50.6666Z" fill="#26081C"/>
<path d="M53.3333 50.6666H58.6667V56H53.3333V50.6666Z" fill="#26081C"/>
<path d="M69.3333 50.6666H74.6667V56H69.3333V50.6666Z" fill="#26081C"/>
<path d="M21.3333 64H26.6667V69.3333H21.3333V64Z" fill="#26081C"/>
<path d="M37.3333 64H42.6667V69.3333H37.3333V64Z" fill="#26081C"/>
<path d="M53.3333 64H58.6667V69.3333H53.3333V64Z" fill="#26081C"/>
<path d="M69.3333 64H74.6667V69.3333H69.3333V64Z" fill="#26081C"/>
<path d="M26.6667 26.6667C27.3739 26.6667 28.0522 26.3858 28.5523 25.8857C29.0524 25.3856 29.3333 24.7073 29.3333 24V8.00004C29.3333 7.2928 29.0524 6.61452 28.5523 6.11442C28.0522 5.61433 27.3739 5.33337 26.6667 5.33337C25.9594 5.33337 25.2811 5.61433 24.781 6.11442C24.281 6.61452 24 7.2928 24 8.00004V24C24 24.7073 24.281 25.3856 24.781 25.8857C25.2811 26.3858 25.9594 26.6667 26.6667 26.6667Z" fill="#26081C"/>
<path d="M69.3333 26.6667C70.0406 26.6667 70.7189 26.3858 71.219 25.8857C71.7191 25.3856 72 24.7073 72 24V8.00004C72 7.2928 71.7191 6.61452 71.219 6.11442C70.7189 5.61433 70.0406 5.33337 69.3333 5.33337C68.6261 5.33337 67.9478 5.61433 67.4477 6.11442C66.9476 6.61452 66.6667 7.2928 66.6667 8.00004V24C66.6667 24.7073 66.9476 25.3856 67.4477 25.8857C67.9478 26.3858 68.6261 26.6667 69.3333 26.6667Z" fill="#26081C"/>
<path d="M34.6667 16H61.3333V21.3333H34.6667V16Z" fill="#26081C"/>
</svg>
