<svg width="11" height="14" viewBox="0 0 11 14" fill="none" xmlns="http://www.w3.org/2000/svg">
<path fill-rule="evenodd" clip-rule="evenodd" d="M0.146009 0.646131C0.192454 0.599568 0.24763 0.562625 0.308375 0.537418C0.36912 0.512212 0.434242 0.499237 0.500009 0.499237C0.565776 0.499237 0.630897 0.512212 0.691643 0.537418C0.752388 0.562625 0.807563 0.599568 0.854009 0.646131L6.85401 6.64613C6.90057 6.69258 6.93751 6.74775 6.96272 6.8085C6.98793 6.86924 7.0009 6.93436 7.0009 7.00013C7.0009 7.0659 6.98793 7.13102 6.96272 7.19176C6.93751 7.25251 6.90057 7.30768 6.85401 7.35413L0.854009 13.3541C0.760122 13.448 0.632785 13.5008 0.500009 13.5008C0.367233 13.5008 0.239895 13.448 0.146009 13.3541C0.0521221 13.2602 -0.000622749 13.1329 -0.000622749 13.0001C-0.000622749 12.8674 0.0521221 12.74 0.146009 12.6461L5.79301 7.00013L0.146009 1.35413C0.0994455 1.30769 0.0625027 1.25251 0.0372963 1.19176C0.0120898 1.13102 -0.00088501 1.0659 -0.00088501 1.00013C-0.00088501 0.934364 0.0120898 0.869242 0.0372963 0.808497C0.0625027 0.747752 0.0994455 0.692577 0.146009 0.646131Z" fill="black"/>
<path fill-rule="evenodd" clip-rule="evenodd" d="M4.14601 0.646131C4.19245 0.599568 4.24763 0.562625 4.30837 0.537418C4.36912 0.512212 4.43424 0.499237 4.50001 0.499237C4.56578 0.499237 4.6309 0.512212 4.69164 0.537418C4.75239 0.562625 4.80756 0.599568 4.85401 0.646131L10.854 6.64613C10.9006 6.69258 10.9375 6.74775 10.9627 6.8085C10.9879 6.86924 11.0009 6.93436 11.0009 7.00013C11.0009 7.0659 10.9879 7.13102 10.9627 7.19176C10.9375 7.25251 10.9006 7.30768 10.854 7.35413L4.85401 13.3541C4.76012 13.448 4.63278 13.5008 4.50001 13.5008C4.36723 13.5008 4.2399 13.448 4.14601 13.3541C4.05212 13.2602 3.99938 13.1329 3.99938 13.0001C3.99938 12.8674 4.05212 12.74 4.14601 12.6461L9.79301 7.00013L4.14601 1.35413C4.09945 1.30769 4.0625 1.25251 4.0373 1.19176C4.01209 1.13102 3.99911 1.0659 3.99911 1.00013C3.99911 0.934364 4.01209 0.869242 4.0373 0.808497C4.0625 0.747752 4.09945 0.692577 4.14601 0.646131Z" fill="black"/>
</svg>
