<svg width="292" height="292" viewBox="0 0 292 292" fill="none" xmlns="http://www.w3.org/2000/svg">
<path d="M16.5056 33.0112C25.6214 33.0112 33.0112 25.6214 33.0112 16.5056C33.0112 7.38981 25.6214 0 16.5056 0C7.38981 0 0 7.38981 0 16.5056C0 25.6214 7.38981 33.0112 16.5056 33.0112Z" fill="#0CBABA" fill-opacity="0.1"/>
<path d="M68.3148 33.0112C77.4306 33.0112 84.8204 25.6214 84.8204 16.5056C84.8204 7.38981 77.4306 0 68.3148 0C59.199 0 51.8092 7.38981 51.8092 16.5056C51.8092 25.6214 59.199 33.0112 68.3148 33.0112Z" fill="#0CBABA" fill-opacity="0.1"/>
<path d="M120.067 33.0112C129.183 33.0112 136.572 25.6214 136.572 16.5056C136.572 7.38981 129.183 0 120.067 0C110.951 0 103.561 7.38981 103.561 16.5056C103.561 25.6214 110.951 33.0112 120.067 33.0112Z" fill="#0CBABA" fill-opacity="0.1"/>
<path d="M16.5056 84.8204C25.6214 84.8204 33.0112 77.4306 33.0112 68.3148C33.0112 59.199 25.6214 51.8092 16.5056 51.8092C7.38981 51.8092 0 59.199 0 68.3148C0 77.4306 7.38981 84.8204 16.5056 84.8204Z" fill="#0CBABA" fill-opacity="0.1"/>
<path d="M68.3148 84.8204C77.4306 84.8204 84.8204 77.4306 84.8204 68.3148C84.8204 59.199 77.4306 51.8092 68.3148 51.8092C59.199 51.8092 51.8092 59.199 51.8092 68.3148C51.8092 77.4306 59.199 84.8204 68.3148 84.8204Z" fill="#0CBABA" fill-opacity="0.1"/>
<path d="M120.067 84.8204C129.183 84.8204 136.572 77.4306 136.572 68.3148C136.572 59.199 129.183 51.8092 120.067 51.8092C110.951 51.8092 103.561 59.199 103.561 68.3148C103.561 77.4306 110.951 84.8204 120.067 84.8204Z" fill="#0CBABA" fill-opacity="0.1"/>
<path d="M16.5056 136.572C25.6214 136.572 33.0112 129.183 33.0112 120.067C33.0112 110.951 25.6214 103.561 16.5056 103.561C7.38981 103.561 0 110.951 0 120.067C0 129.183 7.38981 136.572 16.5056 136.572Z" fill="#0CBABA" fill-opacity="0.1"/>
<path d="M68.3148 136.572C77.4306 136.572 84.8204 129.183 84.8204 120.067C84.8204 110.951 77.4306 103.561 68.3148 103.561C59.199 103.561 51.8092 110.951 51.8092 120.067C51.8092 129.183 59.199 136.572 68.3148 136.572Z" fill="#0CBABA" fill-opacity="0.1"/>
<path d="M120.067 136.572C129.183 136.572 136.572 129.183 136.572 120.067C136.572 110.951 129.183 103.561 120.067 103.561C110.951 103.561 103.561 110.951 103.561 120.067C103.561 129.183 110.951 136.572 120.067 136.572Z" fill="#0CBABA" fill-opacity="0.1"/>
<path d="M171.876 33.0112C180.992 33.0112 188.382 25.6214 188.382 16.5056C188.382 7.38981 180.992 0 171.876 0C162.76 0 155.37 7.38981 155.37 16.5056C155.37 25.6214 162.76 33.0112 171.876 33.0112Z" fill="#0CBABA" fill-opacity="0.1"/>
<path d="M223.685 33.0112C232.801 33.0112 240.191 25.6214 240.191 16.5056C240.191 7.38981 232.801 0 223.685 0C214.569 0 207.18 7.38981 207.18 16.5056C207.18 25.6214 214.569 33.0112 223.685 33.0112Z" fill="#0CBABA" fill-opacity="0.1"/>
<path d="M275.494 33.0112C284.61 33.0112 292 25.6214 292 16.5056C292 7.38981 284.61 0 275.494 0C266.379 0 258.989 7.38981 258.989 16.5056C258.989 25.6214 266.379 33.0112 275.494 33.0112Z" fill="#0CBABA" fill-opacity="0.1"/>
<path d="M171.876 84.8204C180.992 84.8204 188.382 77.4306 188.382 68.3148C188.382 59.199 180.992 51.8092 171.876 51.8092C162.76 51.8092 155.37 59.199 155.37 68.3148C155.37 77.4306 162.76 84.8204 171.876 84.8204Z" fill="#0CBABA" fill-opacity="0.1"/>
<path d="M223.685 84.8204C232.801 84.8204 240.191 77.4306 240.191 68.3148C240.191 59.199 232.801 51.8092 223.685 51.8092C214.569 51.8092 207.18 59.199 207.18 68.3148C207.18 77.4306 214.569 84.8204 223.685 84.8204Z" fill="#0CBABA" fill-opacity="0.1"/>
<path d="M275.494 84.8204C284.61 84.8204 292 77.4306 292 68.3148C292 59.199 284.61 51.8092 275.494 51.8092C266.379 51.8092 258.989 59.199 258.989 68.3148C258.989 77.4306 266.379 84.8204 275.494 84.8204Z" fill="#0CBABA" fill-opacity="0.1"/>
<path d="M171.876 136.572C180.992 136.572 188.382 129.183 188.382 120.067C188.382 110.951 180.992 103.561 171.876 103.561C162.76 103.561 155.37 110.951 155.37 120.067C155.37 129.183 162.76 136.572 171.876 136.572Z" fill="#0CBABA" fill-opacity="0.1"/>
<path d="M223.685 136.572C232.801 136.572 240.191 129.183 240.191 120.067C240.191 110.951 232.801 103.561 223.685 103.561C214.569 103.561 207.18 110.951 207.18 120.067C207.18 129.183 214.569 136.572 223.685 136.572Z" fill="#0CBABA" fill-opacity="0.1"/>
<path d="M275.494 136.572C284.61 136.572 292 129.183 292 120.067C292 110.951 284.61 103.561 275.494 103.561C266.379 103.561 258.989 110.951 258.989 120.067C258.989 129.183 266.379 136.572 275.494 136.572Z" fill="#0CBABA" fill-opacity="0.1"/>
<path d="M16.5056 188.382C25.6214 188.382 33.0112 180.992 33.0112 171.876C33.0112 162.76 25.6214 155.37 16.5056 155.37C7.38981 155.37 0 162.76 0 171.876C0 180.992 7.38981 188.382 16.5056 188.382Z" fill="#0CBABA" fill-opacity="0.1"/>
<path d="M68.3148 188.382C77.4306 188.382 84.8204 180.992 84.8204 171.876C84.8204 162.76 77.4306 155.37 68.3148 155.37C59.199 155.37 51.8092 162.76 51.8092 171.876C51.8092 180.992 59.199 188.382 68.3148 188.382Z" fill="#0CBABA" fill-opacity="0.1"/>
<path d="M120.067 188.382C129.183 188.382 136.572 180.992 136.572 171.876C136.572 162.76 129.183 155.37 120.067 155.37C110.951 155.37 103.561 162.76 103.561 171.876C103.561 180.992 110.951 188.382 120.067 188.382Z" fill="#0CBABA" fill-opacity="0.1"/>
<path d="M16.5056 240.191C25.6214 240.191 33.0112 232.801 33.0112 223.685C33.0112 214.569 25.6214 207.18 16.5056 207.18C7.38981 207.18 0 214.569 0 223.685C0 232.801 7.38981 240.191 16.5056 240.191Z" fill="#0CBABA" fill-opacity="0.1"/>
<path d="M68.3148 240.191C77.4306 240.191 84.8204 232.801 84.8204 223.685C84.8204 214.569 77.4306 207.18 68.3148 207.18C59.199 207.18 51.8092 214.569 51.8092 223.685C51.8092 232.801 59.199 240.191 68.3148 240.191Z" fill="#0CBABA" fill-opacity="0.1"/>
<path d="M120.067 240.191C129.183 240.191 136.572 232.801 136.572 223.685C136.572 214.569 129.183 207.18 120.067 207.18C110.951 207.18 103.561 214.569 103.561 223.685C103.561 232.801 110.951 240.191 120.067 240.191Z" fill="#0CBABA" fill-opacity="0.1"/>
<path d="M16.5056 292C25.6214 292 33.0112 284.61 33.0112 275.494C33.0112 266.379 25.6214 258.989 16.5056 258.989C7.38981 258.989 0 266.379 0 275.494C0 284.61 7.38981 292 16.5056 292Z" fill="#0CBABA" fill-opacity="0.1"/>
<path d="M68.3148 292C77.4306 292 84.8204 284.61 84.8204 275.494C84.8204 266.379 77.4306 258.989 68.3148 258.989C59.199 258.989 51.8092 266.379 51.8092 275.494C51.8092 284.61 59.199 292 68.3148 292Z" fill="#0CBABA" fill-opacity="0.1"/>
<path d="M120.067 292C129.183 292 136.572 284.61 136.572 275.494C136.572 266.379 129.183 258.989 120.067 258.989C110.951 258.989 103.561 266.379 103.561 275.494C103.561 284.61 110.951 292 120.067 292Z" fill="#0CBABA" fill-opacity="0.1"/>
<path d="M171.876 188.382C180.992 188.382 188.382 180.992 188.382 171.876C188.382 162.76 180.992 155.37 171.876 155.37C162.76 155.37 155.37 162.76 155.37 171.876C155.37 180.992 162.76 188.382 171.876 188.382Z" fill="#0CBABA" fill-opacity="0.1"/>
<path d="M223.685 188.382C232.801 188.382 240.191 180.992 240.191 171.876C240.191 162.76 232.801 155.37 223.685 155.37C214.569 155.37 207.18 162.76 207.18 171.876C207.18 180.992 214.569 188.382 223.685 188.382Z" fill="#0CBABA" fill-opacity="0.1"/>
<path d="M275.494 188.382C284.61 188.382 292 180.992 292 171.876C292 162.76 284.61 155.37 275.494 155.37C266.379 155.37 258.989 162.76 258.989 171.876C258.989 180.992 266.379 188.382 275.494 188.382Z" fill="#0CBABA" fill-opacity="0.1"/>
<path d="M171.876 240.191C180.992 240.191 188.382 232.801 188.382 223.685C188.382 214.569 180.992 207.18 171.876 207.18C162.76 207.18 155.37 214.569 155.37 223.685C155.37 232.801 162.76 240.191 171.876 240.191Z" fill="#0CBABA" fill-opacity="0.1"/>
<path d="M223.685 240.191C232.801 240.191 240.191 232.801 240.191 223.685C240.191 214.569 232.801 207.18 223.685 207.18C214.569 207.18 207.18 214.569 207.18 223.685C207.18 232.801 214.569 240.191 223.685 240.191Z" fill="#0CBABA" fill-opacity="0.1"/>
<path d="M275.494 240.191C284.61 240.191 292 232.801 292 223.685C292 214.569 284.61 207.18 275.494 207.18C266.379 207.18 258.989 214.569 258.989 223.685C258.989 232.801 266.379 240.191 275.494 240.191Z" fill="#0CBABA" fill-opacity="0.1"/>
<path d="M171.876 292C180.992 292 188.382 284.61 188.382 275.494C188.382 266.379 180.992 258.989 171.876 258.989C162.76 258.989 155.37 266.379 155.37 275.494C155.37 284.61 162.76 292 171.876 292Z" fill="#0CBABA" fill-opacity="0.1"/>
<path d="M223.685 292C232.801 292 240.191 284.61 240.191 275.494C240.191 266.379 232.801 258.989 223.685 258.989C214.569 258.989 207.18 266.379 207.18 275.494C207.18 284.61 214.569 292 223.685 292Z" fill="#0CBABA" fill-opacity="0.1"/>
<path d="M275.494 292C284.61 292 292 284.61 292 275.494C292 266.379 284.61 258.989 275.494 258.989C266.379 258.989 258.989 266.379 258.989 275.494C258.989 284.61 266.379 292 275.494 292Z" fill="#0CBABA" fill-opacity="0.1"/>
</svg>
