<svg width="11" height="23" viewBox="0 0 11 23" fill="none" xmlns="http://www.w3.org/2000/svg">
<path d="M10 0.0242814H7.64001C6.22001 -0.115719 4.81001 0.35432 3.75001 1.31432C2.89001 2.38432 2.47001 3.73436 2.57001 5.10436V6.6942C2.57001 7.1142 2.23001 7.45446 1.81001 7.45446H0.990005C0.570006 7.45446 0.230011 7.79422 0.230011 8.21422V10.5941C0.230011 11.0141 0.570006 11.3544 0.990005 11.3544H1.81001C2.23001 11.3544 2.57001 11.6941 2.57001 12.1141V21.9242C2.57001 22.3442 2.91001 22.6844 3.33001 22.6844H6.50001C6.92001 22.6844 7.26001 22.3442 7.26001 21.9242V12.1141C7.26001 11.6941 7.60001 11.3544 8.02001 11.3544H9.62001C10.05 11.3444 10.41 11.0241 10.46 10.5941L10.71 8.20446C10.76 7.83446 10.5 7.50446 10.13 7.45446C10.1 7.45446 10.06 7.4442 10.03 7.4442H8.02001C7.60001 7.4442 7.26001 7.10444 7.26001 6.68444V5.48424C7.26001 5.25424 7.27001 5.02407 7.30001 4.80407C7.33001 4.63407 7.39001 4.47409 7.49001 4.32409C7.60001 4.16409 7.76001 4.04426 7.95001 4.00426C8.23001 3.93426 8.52001 3.90442 8.81001 3.91442H10.01C10.43 3.91442 10.77 3.57416 10.77 3.15416V0.764027C10.76 0.364027 10.42 0.0242814 10 0.0242814Z" fill="white"/>
</svg>
