<svg width="96" height="96" viewBox="0 0 96 96" fill="none" xmlns="http://www.w3.org/2000/svg">
<path d="M77.2 67.6C78.8 64.8 80 61.6 80 58C80 48 72 40 62 40C52 40 44 48 44 58C44 68 52 76 62 76C65.6 76 68.8 74.8 71.6 73.2L84.4 86L90 80.4L77.2 67.6ZM62 68C56.4 68 52 63.6 52 58C52 52.4 56.4 48 62 48C67.6 48 72 52.4 72 58C72 63.6 67.6 68 62 68ZM48 80V88C25.92 88 8 70.08 8 48C8 25.92 25.92 8 48 8C67.36 8 83.48 21.76 87.2 40H78.92C77.6724 35.1674 75.3117 30.6935 72.0265 26.9361C68.7414 23.1786 64.6228 20.2417 60 18.36V20C60 24.4 56.4 28 52 28H44V36C44 38.2 42.2 40 40 40H32V48H40V60H36L16.84 40.84C16.32 43.16 16 45.52 16 48C16 65.64 30.36 80 48 80Z" fill="#26081C"/>
</svg>
