<svg width="25" height="24" viewBox="0 0 25 24" fill="none" xmlns="http://www.w3.org/2000/svg">
<path d="M16.885 0.301758H8.11499C4.07499 0.301758 0.804993 3.57182 0.804993 7.61182V16.3818C0.804993 20.4218 4.07499 23.6919 8.11499 23.6919H16.885C20.925 23.6919 24.195 20.4218 24.195 16.3818V7.61182C24.195 3.58182 20.915 0.301758 16.885 0.301758ZM22.005 16.3818C22.005 19.2118 19.715 21.502 16.885 21.502H8.11499C5.29499 21.502 3.005 19.2118 2.995 16.3818V7.61182C2.995 4.79182 5.28499 2.5017 8.11499 2.4917H16.885C19.715 2.4917 22.005 4.78182 22.005 7.61182V16.3818Z" fill="white"/>
<path d="M12.492 6.14893C9.262 6.14893 6.642 8.76902 6.642 11.999C6.642 15.229 9.262 17.8491 12.492 17.8491C15.722 17.8491 18.342 15.229 18.342 11.999C18.342 8.76902 15.722 6.14893 12.492 6.14893ZM12.492 15.6489C10.472 15.6489 8.842 14.009 8.842 11.999C8.842 9.98902 10.482 8.34912 12.492 8.34912C14.512 8.34912 16.142 9.98902 16.142 11.999C16.142 14.019 14.512 15.6489 12.492 15.6489Z" fill="white"/>
<path d="M18.786 6.49072C19.2168 6.49072 19.566 6.14123 19.566 5.71045C19.566 5.27967 19.2168 4.93066 18.786 4.93066C18.3552 4.93066 18.006 5.27967 18.006 5.71045C18.006 6.14123 18.3552 6.49072 18.786 6.49072Z" fill="white"/>
</svg>
