<svg width="25" height="22" viewBox="0 0 25 22" fill="none" xmlns="http://www.w3.org/2000/svg">
<path d="M24.1777 3.96347C24.0577 4.00347 23.9277 4.03308 23.8077 4.06308C23.0577 4.25308 22.9877 4.00322 23.5277 3.45322C23.7677 3.21322 23.9877 2.94341 24.1677 2.65341C24.5877 2.00341 24.2277 1.72304 23.5077 2.02304C23.2577 2.13304 22.9977 2.23308 22.7377 2.31308C21.8877 2.46308 21.0177 2.27304 20.3177 1.77304C18.2177 0.493039 15.5077 0.813059 13.7577 2.54306C12.7477 3.52306 12.1777 4.88306 12.2077 6.29306C12.2077 6.49306 12.2177 6.70341 12.2377 6.90341C12.2777 7.24341 11.7077 7.48314 10.9477 7.37314C9.30772 7.14314 7.70772 6.63314 6.23772 5.87314C4.78772 5.13314 3.46771 4.16325 2.32771 2.99325C1.78771 2.44325 1.05771 2.493 0.857713 3.233C0.737713 3.683 0.677712 4.15314 0.677712 4.62314C0.667712 5.50314 0.887712 6.38341 1.31771 7.15341C1.52771 7.53341 1.77771 7.88321 2.06771 8.20322C2.54771 8.73322 2.47772 9.03312 1.80772 8.85312C1.40772 8.73312 1.02771 8.58341 0.647714 8.40341V8.4332C0.627714 9.6632 1.05771 10.8631 1.85771 11.8131C2.32771 12.3931 2.91772 12.8635 3.58772 13.1934C4.27772 13.5335 4.59771 13.723 4.21771 13.773C3.98771 13.803 3.74772 13.8131 3.51772 13.8131C3.35772 13.8131 3.18772 13.8031 3.01772 13.7931C2.73772 13.7731 2.68771 14.3433 3.10771 14.9933C3.44771 15.5233 3.88771 15.9831 4.38771 16.3531C4.89771 16.7431 5.47771 17.0335 6.09771 17.2135C6.83771 17.4235 6.98771 17.8132 6.32771 18.2032C4.68771 19.1932 2.79771 19.7032 0.887711 19.6832C0.667711 19.6832 0.447712 19.6832 0.247712 19.6632C-0.102288 19.6432 0.127712 19.9631 0.817712 20.3131C2.95771 21.4331 5.34771 22.0133 7.75771 21.9933C9.56771 22.0033 11.3577 21.7034 13.0677 21.0934C14.6177 20.5534 16.0477 19.7434 17.3077 18.6934C18.4777 17.6934 19.4977 16.523 20.3377 15.233C21.1677 13.973 21.8077 12.5934 22.2377 11.1534C22.6477 9.77341 22.8577 8.33316 22.8577 6.89316C22.8577 6.76316 22.8577 6.65331 22.8577 6.55331C22.8577 6.36331 23.3577 5.84308 23.9177 5.31308C24.1677 5.07308 24.4177 4.82308 24.6477 4.56308C25.1477 4.01308 24.9177 3.75347 24.1777 3.96347Z" fill="white"/>
</svg>
